<?xml version="1.0" encoding="UTF-8"?><svg id="_圖層_1" xmlns="http://www.w3.org/2000/svg" viewBox="0 0 20 20"><path d="m20,11.38c0,.2-.04.4-.13.6-.25.54-.79.88-1.41.88h-3.22v5.71c0,.79-.64,1.43-1.43,1.43h-7.62c-.79,0-1.43-.64-1.43-1.43v-5.71H1.55c-.62,0-1.16-.34-1.41-.88-.24-.51-.15-1.1.22-1.53L8.8.54C9.1.2,9.53,0,10,0s.9.2,1.2.54l8.45,9.9c.23.27.35.6.35.93Zm-14.29,7.19c0,.26.21.48.48.48h7.62c.26,0,.48-.21.48-.48v-6.19c0-.26.21-.48.48-.48h3.69c.29,0,.47-.17.55-.33.04-.08.11-.3-.08-.51L10.47,1.16c-.11-.13-.29-.21-.47-.21s-.36.08-.47.21h0S1.07,11.06,1.07,11.06c-.18.21-.11.43-.08.51.07.16.26.33.55.33h3.69c.26,0,.48.21.48.48v6.19Z"/></svg>